<svg width="416" height="126" viewBox="0 0 416 126" fill="none" xmlns="http://www.w3.org/2000/svg">
<g clip-path="url(#clip0_24_421)">
<path d="M141.066 100.831H103.28V98.7078H109.089V52.5129H103.28V50.3896H124.975V52.5129H119.217V98.7078H126.311C128.625 98.7078 130.63 98.397 132.172 97.7238C133.714 97.1023 134.948 96.1701 135.873 95.0308C136.85 93.8397 137.57 92.4414 138.033 90.836C138.547 89.1788 138.855 87.3144 138.958 85.3465L139.009 84.5697H141.066V100.831Z" fill="url(#paint0_linear_24_421)"/>
<path d="M169.598 101.453C166.102 101.453 162.967 100.779 160.242 99.4328C157.517 98.0863 155.152 96.222 153.25 93.8915C151.348 91.561 149.857 88.7645 148.881 85.6572C147.904 82.5499 147.39 79.1837 147.39 75.6104C147.39 72.037 147.904 68.619 148.983 65.5117C150.011 62.4044 151.554 59.6079 153.507 57.2774C155.461 54.947 157.826 53.0826 160.55 51.7361C163.275 50.3896 166.359 49.7164 169.65 49.7164C172.94 49.7164 176.024 50.3896 178.749 51.7361C181.474 53.0826 183.838 54.947 185.792 57.2774C187.746 59.6079 189.236 62.4044 190.316 65.5117C191.344 68.619 191.858 71.9852 191.858 75.5586C191.858 79.1319 191.344 82.4982 190.367 85.6054C189.391 88.7127 187.9 91.5093 186.049 93.8397C184.147 96.222 181.782 98.0863 179.006 99.381C176.23 100.779 173.043 101.453 169.598 101.453ZM169.598 51.8397C167.49 51.8397 165.743 52.4612 164.406 53.6523C163.018 54.8952 161.887 56.656 161.064 58.8311C160.242 61.058 159.625 63.6473 159.265 66.4957C158.905 69.3958 158.7 72.4513 158.7 75.6104C158.7 78.7694 158.854 81.8249 159.162 84.725C159.471 87.5734 160.036 90.1628 160.807 92.4414C161.578 94.6165 162.709 96.3255 164.149 97.5684C165.537 98.7596 167.388 99.381 169.65 99.381C171.912 99.381 173.762 98.7596 175.15 97.5684C176.59 96.3255 177.669 94.6165 178.441 92.4414C179.212 90.2146 179.777 87.6252 180.086 84.725C180.394 81.8249 180.548 78.7694 180.548 75.6104C180.548 72.4513 180.394 69.3958 180.034 66.4957C179.674 63.6473 179.109 61.058 178.235 58.8311C177.412 56.656 176.281 54.947 174.893 53.6523C173.454 52.4612 171.706 51.8397 169.598 51.8397Z" fill="url(#paint1_linear_24_421)"/>
<path d="M218.231 100.831H196.537V98.7078H202.346V52.513H196.537V50.3897H218.334C222.447 50.3897 225.891 50.9593 228.513 52.1505C231.238 53.3416 233.243 55.0506 234.528 57.2257C235.813 59.4008 236.481 61.9902 236.481 64.9421C236.481 67.894 235.813 70.4834 234.528 72.5549C233.243 74.6782 231.186 76.2836 228.461 77.3712C225.788 78.4587 222.395 78.9766 218.283 78.9766H212.422V98.6042H218.18V100.831H218.231ZM212.473 76.9569H217.563C218.848 76.9569 219.979 76.5944 220.904 75.9729C221.881 75.2997 222.755 74.3157 223.372 73.1764C224.04 71.9852 224.554 70.6388 224.914 69.2405C225.274 67.7904 225.428 66.3921 225.428 64.9939C225.428 63.5956 225.274 62.1455 224.914 60.6955C224.554 59.2454 224.04 57.8471 223.372 56.6042C222.704 55.4131 221.881 54.3773 220.853 53.6523C219.876 52.9273 218.797 52.5648 217.511 52.5648H212.422V76.9569H212.473Z" fill="url(#paint2_linear_24_421)"/>
<path d="M277.711 100.831H239.72V98.7078H245.529V52.513H239.72V50.3897H277.094V65.3046H275.038L274.986 64.5796C274.781 62.3527 274.267 60.333 273.341 58.4686C272.416 56.656 271.182 55.206 269.537 54.1184C267.943 53.0309 265.938 52.513 263.574 52.513H255.605V73.6942H257.662C258.741 73.6942 259.821 73.4353 260.798 72.9174C261.774 72.3995 262.648 71.6227 263.317 70.6387C263.985 69.6548 264.448 68.5154 264.602 67.2208L264.705 66.5475H266.71V83.3268H264.705L264.602 82.6535C264.448 81.3589 263.985 80.1677 263.317 79.132C262.648 78.0962 261.774 77.3194 260.798 76.7497C259.821 76.1801 258.793 75.9211 257.713 75.9211H255.657V98.7596H263.008C265.784 98.7596 268.098 98.1899 269.897 97.0506C271.696 95.9113 273.033 94.3576 274.01 92.3897C274.986 90.3699 275.552 87.9877 275.758 85.3465L275.809 84.6215H277.814V100.831H277.711Z" fill="url(#paint3_linear_24_421)"/>
<path d="M307.425 100.831H284.651V98.7078H290.46V52.513H284.651V50.3897H306.089C311.384 50.3897 315.702 51.3736 318.838 53.3416C322.128 55.3613 323.773 58.7275 323.773 63.2331C323.773 67.6351 322.18 70.8977 319.095 72.9174C317.913 73.6942 316.473 74.3157 314.828 74.7818C315.394 74.8854 315.908 75.0407 316.422 75.1961C319.198 75.9729 321.46 77.3194 323.156 79.132C324.853 80.9963 325.727 83.5339 325.727 86.693C325.727 91.7164 324.03 95.3934 320.74 97.5685C317.553 99.7436 313.029 100.831 307.425 100.831ZM300.536 98.7078H305.986C307.579 98.7078 309.07 98.1899 310.356 97.2059C311.692 96.1702 312.772 94.7201 313.543 92.8558C314.365 90.9914 314.777 88.7645 314.777 86.3305C314.777 83.8965 314.365 81.8767 313.594 80.3749C312.823 78.873 311.795 77.7855 310.51 77.0605C309.173 76.3354 307.682 75.9729 306.037 75.9729H300.588V98.7078H300.536ZM300.536 73.9014H305.317C306.757 73.9014 308.094 73.5907 309.327 72.9174C310.51 72.296 311.538 71.2084 312.309 69.8101C313.08 68.3601 313.491 66.3921 313.491 63.9581C313.491 61.5241 313.08 59.4008 312.309 57.6918C311.538 56.0346 310.51 54.7399 309.276 53.8595C308.042 52.9791 306.757 52.5648 305.369 52.5648H300.588V73.9014H300.536Z" fill="url(#paint4_linear_24_421)"/>
<path d="M368.652 100.831H330.661V98.7078H336.471V52.5129H330.661V50.3896H368.036V65.3046H366.031L365.979 64.5795C365.774 62.3526 365.259 60.3329 364.334 58.4685C363.409 56.656 362.175 55.2059 360.53 54.1184C358.936 53.0308 356.931 52.5129 354.566 52.5129H346.598V73.6942H348.654C349.734 73.6942 350.814 73.4353 351.79 72.9174C352.767 72.3995 353.641 71.6227 354.309 70.6387C354.978 69.6547 355.44 68.5154 355.595 67.2207L355.697 66.5475H357.702V83.3267H355.697L355.595 82.6535C355.44 81.3588 354.978 80.1677 354.309 79.1319C353.641 78.0962 352.767 77.3193 351.79 76.7497C350.814 76.18 349.785 75.9211 348.706 75.9211H346.65V98.7595H354.001C356.777 98.7595 359.09 98.1899 360.89 97.0505C362.689 95.9112 364.026 94.3576 365.002 92.3896C365.979 90.3699 366.545 87.9877 366.75 85.3465L366.802 84.6214H368.807V100.831H368.652Z" fill="url(#paint5_linear_24_421)"/>
<path d="M408.34 100.831H384.075V98.7078H391.17V52.5129H387.982C386.337 52.5129 384.949 52.8755 383.818 53.4969C382.687 54.1702 381.71 55.1541 380.939 56.3452C380.168 57.5882 379.551 59.09 379.14 60.799C378.831 62.0937 378.574 63.5438 378.42 64.9938L378.369 65.3046H376.364V50.4414H416V65.3563H413.995L413.944 65.0456C413.789 63.5438 413.532 62.1455 413.224 60.8508C412.813 59.1418 412.196 57.6399 411.425 56.397C410.653 55.1541 409.728 54.2219 408.546 53.5487C407.415 52.8755 406.027 52.5647 404.33 52.5647H401.194V98.7595H408.289V100.831H408.34Z" fill="url(#paint6_linear_24_421)"/>
<path d="M76.1374 64.7349C66.5754 67.5832 62.6169 68.8261 55.8309 78.6658C47.7597 90.4217 49.1478 105.181 49.9703 111.033C51.6668 109.169 52.8492 107.719 54.6999 103.679C57.2704 98.0345 57.6302 96.7916 57.8359 95.4451C58.607 90.9396 56.8077 90.9396 57.5788 86.434C58.0415 83.8964 58.4014 81.8249 60.1493 80.5302C62.3598 78.873 63.5936 80.582 66.8324 80.3748C71.0479 80.0641 76.1374 77.0604 77.5768 72.037C78.2452 69.603 78.8621 63.9063 76.1374 64.7349Z" fill="url(#paint7_linear_24_421)"/>
<path d="M9.09946 64.7349C18.6615 67.5832 22.62 68.8261 29.4059 78.6658C37.4771 90.4217 36.0891 105.181 35.2665 111.033C33.57 109.169 32.3876 107.719 30.5369 103.679C27.9665 98.0345 27.6066 96.7916 27.401 95.4451C26.6299 90.9396 28.4292 90.9396 27.658 86.434C27.1954 83.8964 26.8355 81.8249 25.0876 80.5302C22.877 78.873 21.6432 80.582 18.4044 80.3748C14.1889 80.0641 9.09946 77.0604 7.66001 72.037C6.9917 69.603 6.4262 63.9063 9.09946 64.7349Z" fill="url(#paint8_linear_24_421)"/>
<path d="M66.8314 19.3169C66.3688 22.476 66.3688 25.635 66.78 28.7423C66.78 28.8459 66.8314 29.0012 66.8314 29.1566C67.654 34.8533 69.9674 40.1356 73.4632 43.9679V57.1739C72.8463 56.8113 66.2145 52.6683 59.3258 58.8829C53.568 64.1134 57.6807 70.328 57.5264 71.6745C54.956 74.1085 51.3574 78.1998 48.8384 84.3625C42.9778 98.4488 47.0905 112.173 48.17 115.383C48.3243 115.694 49.2496 117.766 48.4271 119.941C47.656 122.064 44.8285 123.721 42.7207 125.948C40.4073 123.566 37.7855 122.012 37.0143 119.941C36.1918 117.766 37.1172 115.694 37.2714 115.383C38.2996 112.224 42.4637 98.5006 36.6031 84.3625C34.0326 78.1998 30.434 74.1085 27.8636 71.6745C27.7093 70.2762 31.822 64.1134 26.0643 58.8829C19.1755 52.6165 12.5437 56.8113 11.9268 57.1739C11.9268 52.7719 11.9268 48.3699 11.9268 43.9679C15.3712 40.1356 17.6846 34.8015 18.5072 29.1566C18.5072 29.053 18.5586 28.8977 18.5586 28.7423C18.9698 25.635 18.9698 22.4242 18.5072 19.3169C16.8107 8.70037 9.61345 1.81258 1.33663 1.19112C1.23381 1.13933 0.102818 0.103576 0 0H1.64508C10.7958 0 19.4325 6.05919 22.9283 17.1936C25.3445 24.91 24.779 32.3157 23.7509 37.4945C22.9797 41.3785 21.9516 44.0715 21.6945 44.693C25.7558 45.8841 28.8917 47.852 31.0509 49.6128C31.7706 50.2343 32.3875 50.7522 32.9016 51.27C38.1967 56.2935 42.1552 62.4562 42.6693 67.2207C43.132 62.4562 47.0905 56.3453 52.3856 51.27C52.9511 50.7522 53.6194 50.1307 54.3905 49.5093C56.6011 47.7485 59.6342 45.8323 63.6441 44.6412C63.3871 44.0197 62.3589 41.3268 61.5877 37.4427C60.5596 32.2121 59.9941 24.8064 62.4103 17.1418C65.8033 6.05919 74.4399 0 83.6421 0H85.2872C85.1844 0.103576 84.0534 1.13933 83.9506 1.19112C75.6738 1.81258 68.4765 8.70037 66.8314 19.3169Z" fill="url(#paint9_linear_24_421)"/>
</g>
<defs>
<linearGradient id="paint0_linear_24_421" x1="128.714" y1="15.4733" x2="118.018" y2="112.555" gradientUnits="userSpaceOnUse">
<stop offset="0.00192355" stop-color="#FCC054"/>
<stop offset="0.0380888" stop-color="#F2B44C"/>
<stop offset="0.1263" stop-color="#DE9B3C"/>
<stop offset="0.18" stop-color="#D79236"/>
<stop offset="0.2588" stop-color="#DE9A3C"/>
<stop offset="0.3839" stop-color="#F0B14B"/>
<stop offset="0.4485" stop-color="#FCC054"/>
<stop offset="0.5645" stop-color="#FCC85D"/>
<stop offset="0.7543" stop-color="#FDDD76"/>
<stop offset="0.8882" stop-color="#FDF08B"/>
</linearGradient>
<linearGradient id="paint1_linear_24_421" x1="175.545" y1="20.6332" x2="164.849" y2="117.715" gradientUnits="userSpaceOnUse">
<stop offset="0.00192355" stop-color="#FCC054"/>
<stop offset="0.0380888" stop-color="#F2B44C"/>
<stop offset="0.1263" stop-color="#DE9B3C"/>
<stop offset="0.18" stop-color="#D79236"/>
<stop offset="0.2588" stop-color="#DE9A3C"/>
<stop offset="0.3839" stop-color="#F0B14B"/>
<stop offset="0.4485" stop-color="#FCC054"/>
<stop offset="0.5645" stop-color="#FCC85D"/>
<stop offset="0.7543" stop-color="#FDDD76"/>
<stop offset="0.8882" stop-color="#FDF08B"/>
</linearGradient>
<linearGradient id="paint2_linear_24_421" x1="220.101" y1="25.5424" x2="209.404" y2="122.624" gradientUnits="userSpaceOnUse">
<stop offset="0.00192355" stop-color="#FCC054"/>
<stop offset="0.0380888" stop-color="#F2B44C"/>
<stop offset="0.1263" stop-color="#DE9B3C"/>
<stop offset="0.18" stop-color="#D79236"/>
<stop offset="0.2588" stop-color="#DE9A3C"/>
<stop offset="0.3839" stop-color="#F0B14B"/>
<stop offset="0.4485" stop-color="#FCC054"/>
<stop offset="0.5645" stop-color="#FCC85D"/>
<stop offset="0.7543" stop-color="#FDDD76"/>
<stop offset="0.8882" stop-color="#FDF08B"/>
</linearGradient>
<linearGradient id="paint3_linear_24_421" x1="263.632" y1="30.3387" x2="252.935" y2="127.42" gradientUnits="userSpaceOnUse">
<stop offset="0.00192355" stop-color="#FCC054"/>
<stop offset="0.0380888" stop-color="#F2B44C"/>
<stop offset="0.1263" stop-color="#DE9B3C"/>
<stop offset="0.18" stop-color="#D79236"/>
<stop offset="0.2588" stop-color="#DE9A3C"/>
<stop offset="0.3839" stop-color="#F0B14B"/>
<stop offset="0.4485" stop-color="#FCC054"/>
<stop offset="0.5645" stop-color="#FCC85D"/>
<stop offset="0.7543" stop-color="#FDDD76"/>
<stop offset="0.8882" stop-color="#FDF08B"/>
</linearGradient>
<linearGradient id="paint4_linear_24_421" x1="308.882" y1="35.3245" x2="298.186" y2="132.406" gradientUnits="userSpaceOnUse">
<stop offset="0.00192355" stop-color="#FCC054"/>
<stop offset="0.0380888" stop-color="#F2B44C"/>
<stop offset="0.1263" stop-color="#DE9B3C"/>
<stop offset="0.18" stop-color="#D79236"/>
<stop offset="0.2588" stop-color="#DE9A3C"/>
<stop offset="0.3839" stop-color="#F0B14B"/>
<stop offset="0.4485" stop-color="#FCC054"/>
<stop offset="0.5645" stop-color="#FCC85D"/>
<stop offset="0.7543" stop-color="#FDDD76"/>
<stop offset="0.8882" stop-color="#FDF08B"/>
</linearGradient>
<linearGradient id="paint5_linear_24_421" x1="353.495" y1="40.24" x2="342.798" y2="137.321" gradientUnits="userSpaceOnUse">
<stop offset="0.00192355" stop-color="#FCC054"/>
<stop offset="0.0380888" stop-color="#F2B44C"/>
<stop offset="0.1263" stop-color="#DE9B3C"/>
<stop offset="0.18" stop-color="#D79236"/>
<stop offset="0.2588" stop-color="#DE9A3C"/>
<stop offset="0.3839" stop-color="#F0B14B"/>
<stop offset="0.4485" stop-color="#FCC054"/>
<stop offset="0.5645" stop-color="#FCC85D"/>
<stop offset="0.7543" stop-color="#FDDD76"/>
<stop offset="0.8882" stop-color="#FDF08B"/>
</linearGradient>
<linearGradient id="paint6_linear_24_421" x1="397.598" y1="45.0994" x2="386.902" y2="142.181" gradientUnits="userSpaceOnUse">
<stop offset="0.00192355" stop-color="#FCC054"/>
<stop offset="0.0380888" stop-color="#F2B44C"/>
<stop offset="0.1263" stop-color="#DE9B3C"/>
<stop offset="0.18" stop-color="#D79236"/>
<stop offset="0.2588" stop-color="#DE9A3C"/>
<stop offset="0.3839" stop-color="#F0B14B"/>
<stop offset="0.4485" stop-color="#FCC054"/>
<stop offset="0.5645" stop-color="#FCC85D"/>
<stop offset="0.7543" stop-color="#FDDD76"/>
<stop offset="0.8882" stop-color="#FDF08B"/>
</linearGradient>
<linearGradient id="paint7_linear_24_421" x1="70.6054" y1="20.6375" x2="61.306" y2="105.038" gradientUnits="userSpaceOnUse">
<stop offset="0.00192355" stop-color="#FCC054"/>
<stop offset="0.0380888" stop-color="#F2B44C"/>
<stop offset="0.1263" stop-color="#DE9B3C"/>
<stop offset="0.18" stop-color="#D79236"/>
<stop offset="0.2588" stop-color="#DE9A3C"/>
<stop offset="0.3839" stop-color="#F0B14B"/>
<stop offset="0.4485" stop-color="#FCC054"/>
<stop offset="0.5645" stop-color="#FCC85D"/>
<stop offset="0.7543" stop-color="#FDDD76"/>
<stop offset="0.8882" stop-color="#FDF08B"/>
</linearGradient>
<linearGradient id="paint8_linear_24_421" x1="29.1672" y1="16.0719" x2="19.8678" y2="100.472" gradientUnits="userSpaceOnUse">
<stop offset="0.00192355" stop-color="#FCC054"/>
<stop offset="0.0380888" stop-color="#F2B44C"/>
<stop offset="0.1263" stop-color="#DE9B3C"/>
<stop offset="0.18" stop-color="#D79236"/>
<stop offset="0.2588" stop-color="#DE9A3C"/>
<stop offset="0.3839" stop-color="#F0B14B"/>
<stop offset="0.4485" stop-color="#FCC054"/>
<stop offset="0.5645" stop-color="#FCC85D"/>
<stop offset="0.7543" stop-color="#FDDD76"/>
<stop offset="0.8882" stop-color="#FDF08B"/>
</linearGradient>
<linearGradient id="paint9_linear_24_421" x1="40.7458" y1="17.3477" x2="31.4465" y2="101.748" gradientUnits="userSpaceOnUse">
<stop offset="0.00192355" stop-color="#FCC054"/>
<stop offset="0.0380888" stop-color="#F2B44C"/>
<stop offset="0.1263" stop-color="#DE9B3C"/>
<stop offset="0.18" stop-color="#D79236"/>
<stop offset="0.2588" stop-color="#DE9A3C"/>
<stop offset="0.3839" stop-color="#F0B14B"/>
<stop offset="0.4485" stop-color="#FCC054"/>
<stop offset="0.5648" stop-color="#FCC85D"/>
<stop offset="0.755" stop-color="#FDDD76"/>
<stop offset="0.8892" stop-color="#FDF08B"/>
</linearGradient>
<clipPath id="clip0_24_421">
<rect width="416" height="126" fill="white"/>
</clipPath>
</defs>
</svg>
